# xmcd
#
# Track frame offsets:
#	150
#	11970
#	41178
#	53510
#	69754
#	83116
#	96678
#	111950
#	126409
#	140543
#	153386
#	165741
#	178035
#	189640
#	203704
#	215977
#	227349
#	237557
#	249426
#	263736
#	276563
#
# Disc length: 3874 seconds
#
# Revision: 1
# Processed by: cddbd v1.5.2PL0 Copyright (c) Steve Scherf et al.
# Submitted via: audiograbber 1.83.01
#
DISCID=3e0f2015
DTITLE=Ray Charles - Blues Man
DYEAR=2013
DGENRE=Blues
TTITLE0=Lonely Avenue
TTITLE1=What'd I Say
TTITLE2=Mess Around
TTITLE3=Georgia on My Mind
TTITLE4=I Got a Woman
TTITLE5=Baby, Let Me Hold Your Hand
TTITLE6=Drown In My Own Tears
TTITLE7=Come Back Baby
TTITLE8=Someday
TTITLE9=It Should've Been Me
TTITLE10=That's Enough
TTITLE11=Roll With Me Baby
TTITLE12=Hallelujah I Love Her So
TTITLE13=The Midnight Hour
TTITLE14=What Would I Do Without You?
TTITLE15=You Be My Baby
TTITLE16=Sitting on Top of the World
TTITLE17=C.C. Rider
TTITLE18=Blues Is My Middle Name
TTITLE19=Blues Before Sunrise
TTITLE20=A Fool For You
EXTD=
EXTT0=
EXTT1=
EXTT2=
EXTT3=
EXTT4=
EXTT5=
EXTT6=
EXTT7=
EXTT8=
EXTT9=
EXTT10=
EXTT11=
EXTT12=
EXTT13=
EXTT14=
EXTT15=
EXTT16=
EXTT17=
EXTT18=
EXTT19=
EXTT20=
PLAYORDER=
